<?xml version="1.0" standalone="no"?>
<!DOCTYPE svg PUBLIC "-//W3C//DTD SVG 20010904//EN"
 "http://www.w3.org/TR/2001/REC-SVG-20010904/DTD/svg10.dtd">
<svg version="1.0" xmlns="http://www.w3.org/2000/svg"
 width="1024.000000pt" height="392.000000pt" viewBox="0 0 1024.000000 392.000000"
 preserveAspectRatio="xMidYMid meet">

<g transform="translate(0.000000,392.000000) scale(0.100000,-0.100000)"
fill="#000000" stroke="none">
<path d="M0 1960 l0 -1960 5120 0 5120 0 0 1960 0 1960 -5120 0 -5120 0 0
-1960z m1336 1795 c10 -30 20 -52 23 -49 3 3 13 26 22 52 9 27 23 48 32 50 15
3 17 -7 17 -67 0 -82 -17 -97 -22 -18 l-3 52 -18 -53 c-11 -29 -24 -51 -30
-49 -6 2 -19 25 -28 53 l-17 49 -1 -52 c-1 -29 -5 -53 -11 -53 -6 0 -10 30
-10 70 0 89 21 96 46 15z m284 -5 c0 -60 0 -60 29 -60 17 0 33 -4 36 -10 4 -6
-12 -10 -39 -10 l-46 0 0 70 c0 40 4 70 10 70 6 0 10 -27 10 -60z m630 -8 l0
-69 -32 -1 c-41 -1 -58 13 -58 48 0 33 22 54 50 47 16 -4 20 0 20 19 0 13 5
24 10 24 6 0 10 -29 10 -68z m-307 -16 c2 -40 -1 -56 -10 -56 -9 0 -13 15 -13
45 0 29 -4 45 -12 46 -10 0 -10 2 0 6 6 2 12 12 12 21 0 11 3 13 11 5 5 -5 11
-36 12 -67z m607 62 c1 -7 2 -37 3 -66 2 -32 -2 -51 -8 -49 -11 4 -23 81 -17
110 5 20 22 23 22 5z m163 -62 c2 -40 -1 -56 -10 -56 -9 0 -13 15 -13 45 0 29
-4 45 -12 46 -10 0 -10 2 0 6 6 2 12 12 12 21 0 11 3 13 11 5 5 -5 11 -36 12
-67z m-1242 7 l12 -38 12 34 c6 19 17 37 23 39 8 2 5 -17 -9 -55 -23 -62 -44
-92 -56 -79 -5 5 -2 11 5 13 16 6 15 31 -3 82 -8 22 -10 41 -5 41 4 0 14 -17
21 -37z m309 18 c15 -29 13 -31 -25 -31 -26 0 -35 -4 -35 -16 0 -13 7 -15 31
-10 22 4 29 2 27 -7 -6 -17 -46 -21 -64 -7 -17 15 -19 61 -2 78 18 18 56 14
68 -7z m98 7 c23 -23 13 -38 -24 -38 -24 0 -34 -4 -31 -12 2 -7 18 -12 36 -11
26 1 30 -1 20 -13 -24 -29 -79 -5 -79 36 0 39 52 64 78 38z m161 -13 c3 -17 1
-18 -13 -6 -21 17 -46 7 -46 -19 0 -26 25 -36 46 -19 14 12 16 11 13 -6 -3
-13 -14 -21 -32 -23 -21 -3 -29 2 -39 22 -17 39 3 78 39 74 18 -2 29 -10 32
-23z m95 9 c20 -20 20 -48 0 -68 -32 -32 -74 -13 -74 34 0 47 42 66 74 34z
m216 -3 c15 -29 13 -31 -25 -31 -26 0 -35 -4 -35 -16 0 -13 7 -15 31 -10 22 4
29 2 27 -7 -6 -17 -46 -21 -64 -7 -17 15 -19 61 -2 78 18 18 56 14 68 -7z
m148 1 c3 -9 -3 -11 -22 -6 -16 4 -26 2 -26 -5 0 -6 6 -11 13 -11 7 0 22 -6
32 -14 17 -12 17 -16 5 -30 -15 -19 -61 -18 -68 1 -2 9 5 11 27 7 20 -4 31 -2
31 5 0 6 -6 11 -13 11 -25 0 -51 26 -44 44 8 20 58 19 65 -2z m150 6 c5 -7 11
-29 14 -49 l4 -36 -41 1 c-34 1 -41 5 -43 24 -3 18 2 23 27 28 17 4 31 11 31
17 0 5 -13 7 -30 4 -16 -4 -30 -2 -30 2 0 21 53 27 68 9z m-2205 -455 c-25 -3
-33 -9 -33 -24 0 -14 8 -19 33 -21 l32 -1 -32 -4 c-27 -4 -33 -9 -33 -28 0
-20 6 -24 38 -28 34 -3 33 -4 -10 -5 l-48 -2 0 60 0 60 43 -2 c36 -1 38 -2 10
-5z m118 -69 l5 -42 -35 2 c-25 1 -37 6 -39 19 -2 9 4 19 12 22 9 3 24 7 33
10 12 4 13 9 5 17 -8 8 -15 8 -27 -2 -8 -7 -15 -8 -15 -3 0 16 13 24 35 21 15
-2 21 -13 26 -44z m77 26 c4 -12 2 -13 -9 -2 -16 15 -29 16 -29 2 0 -6 11 -15
25 -20 28 -11 31 -22 10 -40 -18 -15 -47 -10 -53 10 -4 12 -2 13 9 3 18 -18
39 -16 39 2 0 8 -6 15 -12 15 -7 0 -19 4 -27 9 -12 8 -13 12 -1 26 16 19 41
16 48 -5z m44 -12 l12 -33 13 34 c23 56 25 28 2 -33 -13 -32 -28 -56 -36 -56
-12 0 -12 2 1 15 13 14 13 20 0 56 -16 47 -16 49 -8 49 3 0 10 -15 16 -32z
m-252 -184 l17 -49 17 53 c10 28 22 52 27 52 5 0 9 -25 9 -55 0 -30 5 -55 10
-55 6 0 10 13 10 29 0 51 61 72 68 23 3 -19 -1 -22 -28 -22 -18 0 -29 -4 -25
-10 8 -13 77 -10 72 4 -3 6 0 22 4 35 7 18 15 22 34 19 18 -4 25 0 28 16 2 12
5 -7 6 -41 1 -73 20 -86 23 -15 l2 47 3 -47 4 -47 66 -32 c130 -62 230 -198
255 -346 52 -309 -226 -587 -535 -535 -201 34 -355 188 -389 390 -33 199 75
405 260 494 l69 33 -13 35 -12 35 -1 -37 c-2 -64 -21 -42 -21 23 0 74 16 75
40 3z m340 -49 c10 0 17 14 21 40 l6 40 2 -46 c1 -44 0 -46 -26 -45 -26 1 -28
4 -29 46 l-2 45 7 -40 c4 -26 11 -40 21 -40z m162 61 c11 -16 10 -76 -2 -76
-5 0 -10 18 -10 41 0 53 -23 48 -31 -7 -5 -34 -6 -35 -8 -9 -3 68 -36 71 -44
5 -3 -31 -4 -30 -5 11 l-2 45 48 1 c26 0 50 -5 54 -11z m-247 -1111 c233 -61
386 -294 347 -527 -34 -202 -188 -356 -389 -390 -309 -52 -587 226 -535 535
46 273 314 450 577 382z m-321 -1141 c18 -17 21 -59 7 -69 -6 -3 -3 -18 7 -35
16 -28 16 -30 -4 -57 -37 -50 -124 -37 -124 19 0 24 17 23 25 -1 12 -38 68
-38 80 0 8 24 -11 49 -36 49 -28 0 -23 17 7 24 19 5 25 12 22 29 -4 31 -57 38
-65 8 -6 -25 -33 -28 -33 -4 0 46 80 72 114 37z m160 3 c21 -15 25 -65 7 -77
-9 -5 -8 -10 4 -20 23 -19 19 -66 -7 -84 -44 -31 -118 -6 -118 39 0 20 19 19
26 0 18 -45 84 -36 84 10 0 18 -7 26 -25 31 -31 8 -32 16 -3 29 30 13 34 41 9
55 -25 13 -61 -2 -61 -25 0 -8 -4 -15 -10 -15 -16 0 -12 37 6 54 19 19 64 21
88 3z m168 -4 c20 -18 24 -53 8 -69 -8 -8 -6 -15 5 -24 37 -31 1 -100 -53
-100 -35 0 -72 26 -72 51 0 23 18 25 26 4 18 -45 84 -36 84 11 0 19 -6 26 -30
31 -33 6 -41 23 -10 23 29 0 44 34 24 54 -18 19 -20 19 -45 6 -10 -6 -19 -17
-19 -25 0 -8 -7 -15 -15 -15 -21 0 -19 26 5 50 24 24 67 26 92 3z m172 1 c18
-17 21 -59 7 -69 -6 -3 -3 -18 7 -35 16 -28 16 -30 -4 -57 -37 -50 -124 -37
-124 19 0 24 17 23 25 -1 12 -38 68 -38 80 0 8 24 -11 49 -36 49 -28 0 -23 17
7 24 19 5 25 12 22 29 -4 31 -52 36 -68 8 -12 -23 -30 -28 -30 -8 0 7 7 23 16
35 18 26 74 30 98 6z"/>
<path d="M2184 3736 c-9 -24 4 -48 23 -44 12 2 18 12 18 28 0 29 -32 41 -41
16z"/>
<path d="M1720 3740 c0 -5 12 -10 26 -10 14 0 23 4 19 10 -3 6 -15 10 -26 10
-10 0 -19 -4 -19 -10z"/>
<path d="M1825 3740 c-4 -6 5 -10 19 -10 14 0 26 5 26 10 0 6 -9 10 -19 10
-11 0 -23 -4 -26 -10z"/>
<path d="M2077 3736 c-10 -26 4 -47 27 -44 15 2 21 10 21 28 0 29 -38 41 -48
16z"/>
<path d="M2290 3740 c0 -5 12 -10 26 -10 14 0 23 4 19 10 -3 6 -15 10 -26 10
-10 0 -19 -4 -19 -10z"/>
<path d="M2604 3705 c-18 -14 -18 -14 9 -15 17 0 27 5 27 15 0 19 -11 19 -36
0z"/>
<path d="M510 3214 c0 -9 7 -14 17 -12 25 5 28 28 4 28 -12 0 -21 -6 -21 -16z"/>
<path d="M476 3066 c-3 -13 -9 -31 -12 -40 -4 -11 -1 -16 10 -16 12 0 16 10
16 40 0 45 -5 51 -14 16z"/>
<path d="M540 3065 c-11 -13 -9 -15 15 -15 16 0 25 5 23 12 -7 19 -24 20 -38
3z"/>
<path d="M627 3073 c-12 -12 -7 -51 7 -56 23 -9 39 18 26 42 -11 22 -22 26
-33 14z"/>
<path d="M458 2934 c-37 -11 -48 -19 -48 -35 0 -15 5 -19 16 -15 9 3 22 6 30
6 8 0 14 9 14 20 0 11 7 20 15 20 8 0 15 -9 15 -19 0 -15 7 -19 32 -17 31 1
33 -1 38 -42 4 -27 3 -42 -4 -41 -6 1 -24 1 -40 0 -28 -1 -29 -1 -22 -51 5
-39 4 -50 -7 -50 -10 0 -16 20 -20 71 -3 39 -7 72 -9 74 -2 1 -15 5 -30 9 -26
6 -28 4 -28 -24 0 -16 -4 -30 -10 -30 -5 0 -10 23 -10 50 l0 50 -25 -16 c-23
-15 -25 -22 -25 -100 0 -68 -3 -84 -15 -84 -12 0 -15 15 -15 72 l0 72 -31 -30
c-17 -16 -47 -63 -67 -103 -35 -71 -37 -80 -37 -171 0 -91 2 -100 37 -172 45
-91 103 -147 196 -191 61 -29 76 -32 162 -32 86 0 101 3 162 32 93 44 151 100
196 191 35 72 37 81 37 172 0 91 -2 100 -37 171 -20 41 -48 85 -62 98 l-26 24
0 -66 c0 -53 -3 -67 -15 -67 -12 0 -15 15 -15 74 0 70 -1 75 -22 78 -14 2 -23
10 -23 21 0 16 -20 36 -37 37 -5 0 -8 -25 -8 -55 0 -39 -4 -55 -12 -54 -33 4
-38 -2 -38 -51 0 -38 -4 -50 -15 -50 -12 0 -15 15 -15 75 0 60 -3 75 -15 75
-9 0 -15 -9 -15 -25 0 -14 -4 -25 -10 -25 -5 0 -10 21 -10 46 0 37 3 45 15 40
9 -3 24 3 35 14 24 24 30 25 30 5 0 -8 5 -15 11 -15 8 0 8 -4 -1 -14 -13 -17
-10 -56 5 -59 6 -1 11 21 12 50 l2 52 -37 11 c-52 14 -148 11 -204 -6z"/>
<path d="M515 2874 c-19 -15 -19 -15 10 -12 17 2 29 7 28 13 -3 16 -17 15 -38
-1z"/>
<path d="M520 2835 c0 -17 2 -18 24 -9 23 9 20 24 -4 24 -11 0 -20 -7 -20 -15z"/>
<path d="M477 1900 c-21 -6 -51 -17 -67 -25 -25 -13 -29 -20 -24 -39 8 -34
-10 -62 -61 -92 -25 -14 -45 -30 -45 -34 0 -5 23 -10 52 -12 30 -2 53 -8 56
-15 3 -10 -16 -13 -71 -13 -74 0 -74 0 -69 25 4 24 25 45 86 88 25 18 36 57
16 57 -26 0 -103 -88 -138 -158 -35 -72 -37 -81 -37 -172 0 -91 2 -100 37
-172 45 -91 103 -147 196 -191 61 -29 76 -32 162 -32 86 0 101 3 162 32 93 44
151 100 196 191 35 72 37 81 37 171 0 87 -3 102 -31 161 -18 36 -38 73 -46 84
-14 18 -16 18 -61 -9 -26 -15 -47 -31 -47 -35 0 -5 23 -10 52 -12 30 -2 53 -8
56 -15 3 -10 -16 -13 -71 -13 -73 0 -75 1 -70 23 8 31 21 46 67 75 l40 25 -28
23 c-31 28 -46 30 -46 9 0 -8 -7 -15 -16 -15 -12 0 -15 6 -10 25 6 23 2 28
-40 46 -53 24 -178 34 -237 19z m51 -36 c22 -15 30 -57 14 -80 -4 -6 -26 -23
-49 -37 -62 -39 -62 -47 1 -47 43 0 56 -3 56 -15 0 -12 -14 -15 -70 -15 -38 0
-70 4 -70 9 0 30 24 61 64 85 51 30 62 67 26 86 -17 9 -25 6 -46 -15 -29 -29
-46 -33 -37 -7 18 51 67 67 111 36z m170 0 c33 -23 29 -67 -8 -96 -17 -13 -43
-33 -58 -45 l-27 -22 58 -1 c44 0 57 -3 57 -15 0 -12 -14 -15 -70 -15 -57 0
-70 3 -70 16 0 29 20 53 65 80 33 19 45 32 45 50 0 44 -62 55 -75 13 -6 -17
-35 -28 -35 -13 0 11 23 49 34 56 19 13 60 9 84 -8z"/>
</g>
</svg>
